<?xml version="1.0" encoding="UTF-8" standalone="no"?>
<!-- Created with Digital by H.Neemann -->
<!-- created: Wed Jan 11 15:44:01 CET 2023 -->

<svg
   xmlns:svg="http://www.w3.org/2000/svg"
   xmlns="http://www.w3.org/2000/svg"
   width="391.2mm"
   height="71.1mm"
   viewBox="-54 283 2608 474">
<g stroke-linecap="square">
<path d="M 260,580 L 270,580 L 280,580" stroke="#000000" stroke-width="4.0" fill="none"/>
<path d="M 640,580 L 650,580 L 660,580" stroke="#000000" stroke-width="4.0" fill="none"/>
<path d="M 1040,580 L 1050,580 L 1060,580" stroke="#000000" stroke-width="4.0" fill="none"/>
<path d="M 1400,580 L 1410,580 L 1420,580" stroke="#000000" stroke-width="4.0" fill="none"/>
<path d="M 1820,480 L 1830,480 L 1840,480" stroke="#000000" stroke-width="4.0" fill="none"/>
<path d="M 1840,460 L 1830,460" stroke="#000000" stroke-width="4.0" fill="none"/>
<path d="M 1840,440 L 1830,440" stroke="#000000" stroke-width="4.0" fill="none"/>
<path d="M 2040,480 L 2050,480 L 2060,480" stroke="#000000" stroke-width="4.0" fill="none"/>
<path d="M 2040,440 L 2050,440" stroke="#000000" stroke-width="4.0" fill="none"/>
<path d="M 2040,400 L 2050,400" stroke="#000000" stroke-width="4.0" fill="none"/>
<path d="M 2060,480 L 2140,480 L 2140,300 L 2340,300" stroke="#0000b2" stroke-width="4.0" fill="none"/>
<path d="M 160,480 L 360,480" stroke="#0000b2" stroke-width="4.0" fill="none"/>
<path d="M 580,480 L 740,480" stroke="#0000b2" stroke-width="4.0" fill="none"/>
<path d="M 960,480 L 1120,480" stroke="#0000b2" stroke-width="4.0" fill="none"/>
<path d="M 1340,480 L 1500,480" stroke="#0000b2" stroke-width="4.0" fill="none"/>
<path d="M 1720,480 L 1820,480" stroke="#0000b2" stroke-width="4.0" fill="none"/>
<path d="M 1840,480 L 2040,480" stroke="#0000b2" stroke-width="4.0" fill="none"/>
<path d="M 160,640 L 240,640 L 620,640 L 620,580 L 640,580" stroke="#0000b2" stroke-width="4.0" fill="none"/>
<path d="M 240,640 L 240,580 L 260,580" stroke="#0000b2" stroke-width="4.0" fill="none"/>
<path d="M 280,580 L 360,580" stroke="#0000b2" stroke-width="4.0" fill="none"/>
<path d="M 660,580 L 740,580" stroke="#0000b2" stroke-width="4.0" fill="none"/>
<path d="M 1020,660 L 1020,580 L 1040,580" stroke="#0000b2" stroke-width="4.0" fill="none"/>
<path d="M 1060,580 L 1120,580" stroke="#0000b2" stroke-width="4.0" fill="none"/>
<path d="M 1420,580 L 1500,580" stroke="#0000b2" stroke-width="4.0" fill="none"/>
<path d="M 1900,420 L 1920,420 L 1934,420" stroke="#0000b2" stroke-width="4.0" fill="none"/>
<path d="M 160,520 L 360,520" stroke="#0000b2" stroke-width="4.0" fill="none"/>
<path d="M 580,520 L 740,520" stroke="#0000b2" stroke-width="4.0" fill="none"/>
<path d="M 960,520 L 1120,520" stroke="#0000b2" stroke-width="4.0" fill="none"/>
<path d="M 1340,520 L 1500,520" stroke="#0000b2" stroke-width="4.0" fill="none"/>
<path d="M 1720,520 L 2340,520" stroke="#0000b2" stroke-width="4.0" fill="none"/>
<path d="M 1840,460 L 1920,460 L 1934,460" stroke="#0000b2" stroke-width="4.0" fill="none"/>
<path d="M 160,560 L 360,560" stroke="#0000b2" stroke-width="4.0" fill="none"/>
<path d="M 580,560 L 740,560" stroke="#0000b2" stroke-width="4.0" fill="none"/>
<path d="M 960,560 L 1120,560" stroke="#0000b2" stroke-width="4.0" fill="none"/>
<path d="M 1340,560 L 1500,560" stroke="#0000b2" stroke-width="4.0" fill="none"/>
<path d="M 1720,560 L 2140,560 L 2140,740 L 2340,740" stroke="#0000b2" stroke-width="4.0" fill="none"/>
<path d="M 160,500 L 360,500" stroke="#0000b2" stroke-width="4.0" fill="none"/>
<path d="M 580,500 L 740,500" stroke="#0000b2" stroke-width="4.0" fill="none"/>
<path d="M 960,500 L 1120,500" stroke="#0000b2" stroke-width="4.0" fill="none"/>
<path d="M 1340,500 L 1500,500" stroke="#0000b2" stroke-width="4.0" fill="none"/>
<path d="M 1720,500 L 2160,500 L 2160,400 L 2340,400" stroke="#0000b2" stroke-width="4.0" fill="none"/>
<path d="M 160,660 L 1020,660 L 1380,660 L 1380,580 L 1400,580" stroke="#0000b2" stroke-width="4.0" fill="none"/>
<path d="M 1840,440 L 1860,440 L 1860,400 L 2040,400" stroke="#0000b2" stroke-width="4.0" fill="none"/>
<path d="M 2000,440 L 2040,440" stroke="#0000b2" stroke-width="4.0" fill="none"/>
<path d="M 1720,540 L 2160,540 L 2160,660 L 2340,660" stroke="#0000b2" stroke-width="4.0" fill="none"/>
<path d="M 160,540 L 360,540" stroke="#0000b2" stroke-width="4.0" fill="none"/>
<path d="M 580,540 L 740,540" stroke="#0000b2" stroke-width="4.0" fill="none"/>
<path d="M 960,540 L 1120,540" stroke="#0000b2" stroke-width="4.0" fill="none"/>
<path d="M 1340,540 L 1500,540" stroke="#0000b2" stroke-width="4.0" fill="none"/>
<g>
<circle cx="240.0" cy="640.0" r="4.0" stroke="#0000b2" stroke-width="4.0" fill="#0000b2" />
<circle cx="1020.0" cy="660.0" r="4.0" stroke="#0000b2" stroke-width="4.0" fill="#0000b2" />
</g>
<g>
<path d="M 139,470 L 159,470 L 159,490 L 139,490 Z" stroke="#000000" stroke-width="4.0" fill="none"/>
<circle cx="149.0" cy="480.0" r="4.0" stroke="#000000" stroke-width="2.0" fill="none" />
<text text-anchor="end" x="130.0" y="489.0" fill="#000000" style="font-size:24px"><tspan style="font-style:italic;">State<tspan style="font-size:80%;baseline-shift:sub;">in0-63</tspan></tspan></text>
<circle cx="160.0" cy="480.0" r="2.0" stroke="#b20000" stroke-width="4.0" fill="#b20000" />
</g>
<g>
<path d="M 139,510 L 159,510 L 159,530 L 139,530 Z" stroke="#000000" stroke-width="4.0" fill="none"/>
<circle cx="149.0" cy="520.0" r="4.0" stroke="#000000" stroke-width="2.0" fill="none" />
<text text-anchor="end" x="130.0" y="529.0" fill="#000000" style="font-size:24px"><tspan style="font-style:italic;">State<tspan style="font-size:80%;baseline-shift:sub;">in128-191</tspan></tspan></text>
<circle cx="160.0" cy="520.0" r="2.0" stroke="#b20000" stroke-width="4.0" fill="#b20000" />
</g>
<g>
<path d="M 139,530 L 159,530 L 159,550 L 139,550 Z" stroke="#000000" stroke-width="4.0" fill="none"/>
<circle cx="149.0" cy="540.0" r="4.0" stroke="#000000" stroke-width="2.0" fill="none" />
<text text-anchor="end" x="130.0" y="549.0" fill="#000000" style="font-size:24px"><tspan style="font-style:italic;">State<tspan style="font-size:80%;baseline-shift:sub;">in192-255</tspan></tspan></text>
<circle cx="160.0" cy="540.0" r="2.0" stroke="#b20000" stroke-width="4.0" fill="#b20000" />
</g>
<g>
<path d="M 139,490 L 159,490 L 159,510 L 139,510 Z" stroke="#000000" stroke-width="4.0" fill="none"/>
<circle cx="149.0" cy="500.0" r="4.0" stroke="#000000" stroke-width="2.0" fill="none" />
<text text-anchor="end" x="130.0" y="509.0" fill="#000000" style="font-size:24px"><tspan style="font-style:italic;">State<tspan style="font-size:80%;baseline-shift:sub;">in64-127</tspan></tspan></text>
<circle cx="160.0" cy="500.0" r="2.0" stroke="#b20000" stroke-width="4.0" fill="#b20000" />
</g>
<g>
<path d="M 139,550 L 159,550 L 159,570 L 139,570 Z" stroke="#000000" stroke-width="4.0" fill="none"/>
<circle cx="149.0" cy="560.0" r="4.0" stroke="#000000" stroke-width="2.0" fill="none" />
<text text-anchor="end" x="130.0" y="569.0" fill="#000000" style="font-size:24px"><tspan style="font-style:italic;">State<tspan style="font-size:80%;baseline-shift:sub;">in256</tspan></tspan></text>
<circle cx="160.0" cy="560.0" r="2.0" stroke="#b20000" stroke-width="4.0" fill="#b20000" />
</g>
<g>
<path d="M 139,630 L 159,630 L 159,650 L 139,650 Z" stroke="#000000" stroke-width="4.0" fill="none"/>
<circle cx="149.0" cy="640.0" r="4.0" stroke="#000000" stroke-width="2.0" fill="none" />
<text text-anchor="end" x="130.0" y="649.0" fill="#000000" style="font-size:24px"><tspan style="font-style:italic;">value-in<tspan style="font-size:80%;baseline-shift:sub;">0-63</tspan></tspan></text>
<circle cx="160.0" cy="640.0" r="2.0" stroke="#b20000" stroke-width="4.0" fill="#b20000" />
</g>
<g>
<path d="M 139,650 L 159,650 L 159,670 L 139,670 Z" stroke="#000000" stroke-width="4.0" fill="none"/>
<circle cx="149.0" cy="660.0" r="4.0" stroke="#000000" stroke-width="2.0" fill="none" />
<text text-anchor="end" x="130.0" y="669.0" fill="#000000" style="font-size:24px"><tspan style="font-style:italic;">value-in<tspan style="font-size:80%;baseline-shift:sub;">64-127</tspan></tspan></text>
<circle cx="160.0" cy="660.0" r="2.0" stroke="#b20000" stroke-width="4.0" fill="#b20000" />
</g>
<g>
<text text-anchor="end" x="258.0" y="577.0" fill="#808080" style="font-size:12px">0-63</text>
<text text-anchor="start" x="282.0" y="577.0" fill="#808080" style="font-size:12px">0-31</text>
<path d="M 268,578 L 272,578 L 272,582 L 268,582 Z" stroke="#000000" stroke-width="4.0" fill="#000000" fill-opacity="1.0"/>
<circle cx="260.0" cy="580.0" r="2.0" stroke="#0000b2" stroke-width="4.0" fill="#0000b2" />
<circle cx="280.0" cy="580.0" r="2.0" stroke="#b20000" stroke-width="4.0" fill="#b20000" />
</g>
<g>
<text text-anchor="end" x="638.0" y="577.0" fill="#808080" style="font-size:12px">0-63</text>
<text text-anchor="start" x="662.0" y="577.0" fill="#808080" style="font-size:12px">32-63</text>
<path d="M 648,578 L 652,578 L 652,582 L 648,582 Z" stroke="#000000" stroke-width="4.0" fill="#000000" fill-opacity="1.0"/>
<circle cx="640.0" cy="580.0" r="2.0" stroke="#0000b2" stroke-width="4.0" fill="#0000b2" />
<circle cx="660.0" cy="580.0" r="2.0" stroke="#b20000" stroke-width="4.0" fill="#b20000" />
</g>
<g>
<text text-anchor="end" x="1038.0" y="577.0" fill="#808080" style="font-size:12px">0-63</text>
<text text-anchor="start" x="1062.0" y="577.0" fill="#808080" style="font-size:12px">0-31</text>
<path d="M 1048,578 L 1052,578 L 1052,582 L 1048,582 Z" stroke="#000000" stroke-width="4.0" fill="#000000" fill-opacity="1.0"/>
<circle cx="1040.0" cy="580.0" r="2.0" stroke="#0000b2" stroke-width="4.0" fill="#0000b2" />
<circle cx="1060.0" cy="580.0" r="2.0" stroke="#b20000" stroke-width="4.0" fill="#b20000" />
</g>
<g>
<text text-anchor="end" x="1398.0" y="577.0" fill="#808080" style="font-size:12px">0-63</text>
<text text-anchor="start" x="1422.0" y="577.0" fill="#808080" style="font-size:12px">32-63</text>
<path d="M 1408,578 L 1412,578 L 1412,582 L 1408,582 Z" stroke="#000000" stroke-width="4.0" fill="#000000" fill-opacity="1.0"/>
<circle cx="1400.0" cy="580.0" r="2.0" stroke="#0000b2" stroke-width="4.0" fill="#0000b2" />
<circle cx="1420.0" cy="580.0" r="2.0" stroke="#b20000" stroke-width="4.0" fill="#b20000" />
</g>
<g>
<circle cx="2356.0" cy="300.0" r="9.0" stroke="#000000" stroke-width="4.0" fill="none" />
<circle cx="2356.0" cy="300.0" r="15.0" stroke="#000000" stroke-width="4.0" fill="none" />
<text text-anchor="start" x="2385.0" y="309.0" fill="#000000" style="font-size:24px"><tspan style="font-style:italic;">State'<tspan style="font-size:80%;baseline-shift:sub;">0-63</tspan></tspan></text>
<circle cx="2340.0" cy="300.0" r="2.0" stroke="#0000b2" stroke-width="4.0" fill="#0000b2" />
</g>
<g>
<circle cx="2356.0" cy="400.0" r="9.0" stroke="#000000" stroke-width="4.0" fill="none" />
<circle cx="2356.0" cy="400.0" r="15.0" stroke="#000000" stroke-width="4.0" fill="none" />
<text text-anchor="start" x="2385.0" y="409.0" fill="#000000" style="font-size:24px"><tspan style="font-style:italic;">State'<tspan style="font-size:80%;baseline-shift:sub;">64-127</tspan></tspan></text>
<circle cx="2340.0" cy="400.0" r="2.0" stroke="#0000b2" stroke-width="4.0" fill="#0000b2" />
</g>
<g>
<circle cx="2356.0" cy="520.0" r="9.0" stroke="#000000" stroke-width="4.0" fill="none" />
<circle cx="2356.0" cy="520.0" r="15.0" stroke="#000000" stroke-width="4.0" fill="none" />
<text text-anchor="start" x="2385.0" y="529.0" fill="#000000" style="font-size:24px"><tspan style="font-style:italic;">State'<tspan style="font-size:80%;baseline-shift:sub;">128-191</tspan></tspan></text>
<circle cx="2340.0" cy="520.0" r="2.0" stroke="#0000b2" stroke-width="4.0" fill="#0000b2" />
</g>
<g>
<circle cx="2356.0" cy="660.0" r="9.0" stroke="#000000" stroke-width="4.0" fill="none" />
<circle cx="2356.0" cy="660.0" r="15.0" stroke="#000000" stroke-width="4.0" fill="none" />
<text text-anchor="start" x="2385.0" y="669.0" fill="#000000" style="font-size:24px"><tspan style="font-style:italic;">State'<tspan style="font-size:80%;baseline-shift:sub;">192-255</tspan></tspan></text>
<circle cx="2340.0" cy="660.0" r="2.0" stroke="#0000b2" stroke-width="4.0" fill="#0000b2" />
</g>
<g>
<circle cx="2356.0" cy="740.0" r="9.0" stroke="#000000" stroke-width="4.0" fill="none" />
<circle cx="2356.0" cy="740.0" r="15.0" stroke="#000000" stroke-width="4.0" fill="none" />
<text text-anchor="start" x="2385.0" y="749.0" fill="#000000" style="font-size:24px"><tspan style="font-style:italic;">State'<tspan style="font-size:80%;baseline-shift:sub;">256</tspan></tspan></text>
<circle cx="2340.0" cy="740.0" r="2.0" stroke="#0000b2" stroke-width="4.0" fill="#0000b2" />
</g>
<g>
<path d="M 361,466 L 579,466 L 579,594 L 361,594 Z" stroke="#ffffb4" stroke-width="0.0" fill="#ffffb4" fill-opacity="0.7843137254901961"/>
<path d="M 361,466 L 579,466 L 579,594 L 361,594 Z" stroke="#000000" stroke-width="4.0" fill="none"/>
<text text-anchor="start" x="364.0" y="486.75" fill="#808080" style="font-size:18px">state<tspan style="font-size:80%;baseline-shift:sub;">0-63</tspan></text>
<text text-anchor="start" x="364.0" y="506.75" fill="#808080" style="font-size:18px">state<tspan style="font-size:80%;baseline-shift:sub;">128-191</tspan></text>
<text text-anchor="start" x="364.0" y="526.75" fill="#808080" style="font-size:18px">state<tspan style="font-size:80%;baseline-shift:sub;">192-255</tspan></text>
<text text-anchor="start" x="364.0" y="546.75" fill="#808080" style="font-size:18px">state<tspan style="font-size:80%;baseline-shift:sub;">64-127</tspan></text>
<text text-anchor="start" x="364.0" y="566.75" fill="#808080" style="font-size:18px">state<tspan style="font-size:80%;baseline-shift:sub;">256</tspan></text>
<text text-anchor="start" x="364.0" y="586.75" fill="#808080" style="font-size:18px">sigma</text>
<text text-anchor="end" x="576.0" y="486.75" fill="#808080" style="font-size:18px">Dstate'<tspan style="font-size:80%;baseline-shift:sub;">0-63</tspan></text>
<text text-anchor="end" x="576.0" y="506.75" fill="#808080" style="font-size:18px">Dstate'<tspan style="font-size:80%;baseline-shift:sub;">64-127</tspan></text>
<text text-anchor="end" x="576.0" y="526.75" fill="#808080" style="font-size:18px">Dstate'<tspan style="font-size:80%;baseline-shift:sub;">128-191</tspan></text>
<text text-anchor="end" x="576.0" y="546.75" fill="#808080" style="font-size:18px">Dstate'<tspan style="font-size:80%;baseline-shift:sub;">192-255</tspan></text>
<text text-anchor="end" x="576.0" y="566.75" fill="#808080" style="font-size:18px">Dstate'<tspan style="font-size:80%;baseline-shift:sub;">256</tspan></text>
<text text-anchor="middle" x="470.0" y="611.5" fill="#808080" style="font-size:18px">subterranean_duplex</text>
<circle cx="360.0" cy="480.0" r="2.0" stroke="#0000b2" stroke-width="4.0" fill="#0000b2" />
<circle cx="360.0" cy="500.0" r="2.0" stroke="#0000b2" stroke-width="4.0" fill="#0000b2" />
<circle cx="360.0" cy="520.0" r="2.0" stroke="#0000b2" stroke-width="4.0" fill="#0000b2" />
<circle cx="360.0" cy="540.0" r="2.0" stroke="#0000b2" stroke-width="4.0" fill="#0000b2" />
<circle cx="360.0" cy="560.0" r="2.0" stroke="#0000b2" stroke-width="4.0" fill="#0000b2" />
<circle cx="360.0" cy="580.0" r="2.0" stroke="#0000b2" stroke-width="4.0" fill="#0000b2" />
<circle cx="580.0" cy="480.0" r="2.0" stroke="#b20000" stroke-width="4.0" fill="#b20000" />
<circle cx="580.0" cy="500.0" r="2.0" stroke="#b20000" stroke-width="4.0" fill="#b20000" />
<circle cx="580.0" cy="520.0" r="2.0" stroke="#b20000" stroke-width="4.0" fill="#b20000" />
<circle cx="580.0" cy="540.0" r="2.0" stroke="#b20000" stroke-width="4.0" fill="#b20000" />
<circle cx="580.0" cy="560.0" r="2.0" stroke="#b20000" stroke-width="4.0" fill="#b20000" />
</g>
<g>
<path d="M 741,466 L 959,466 L 959,594 L 741,594 Z" stroke="#ffffb4" stroke-width="0.0" fill="#ffffb4" fill-opacity="0.7843137254901961"/>
<path d="M 741,466 L 959,466 L 959,594 L 741,594 Z" stroke="#000000" stroke-width="4.0" fill="none"/>
<text text-anchor="start" x="744.0" y="486.75" fill="#808080" style="font-size:18px">state<tspan style="font-size:80%;baseline-shift:sub;">0-63</tspan></text>
<text text-anchor="start" x="744.0" y="506.75" fill="#808080" style="font-size:18px">state<tspan style="font-size:80%;baseline-shift:sub;">128-191</tspan></text>
<text text-anchor="start" x="744.0" y="526.75" fill="#808080" style="font-size:18px">state<tspan style="font-size:80%;baseline-shift:sub;">192-255</tspan></text>
<text text-anchor="start" x="744.0" y="546.75" fill="#808080" style="font-size:18px">state<tspan style="font-size:80%;baseline-shift:sub;">64-127</tspan></text>
<text text-anchor="start" x="744.0" y="566.75" fill="#808080" style="font-size:18px">state<tspan style="font-size:80%;baseline-shift:sub;">256</tspan></text>
<text text-anchor="start" x="744.0" y="586.75" fill="#808080" style="font-size:18px">sigma</text>
<text text-anchor="end" x="956.0" y="486.75" fill="#808080" style="font-size:18px">Dstate'<tspan style="font-size:80%;baseline-shift:sub;">0-63</tspan></text>
<text text-anchor="end" x="956.0" y="506.75" fill="#808080" style="font-size:18px">Dstate'<tspan style="font-size:80%;baseline-shift:sub;">64-127</tspan></text>
<text text-anchor="end" x="956.0" y="526.75" fill="#808080" style="font-size:18px">Dstate'<tspan style="font-size:80%;baseline-shift:sub;">128-191</tspan></text>
<text text-anchor="end" x="956.0" y="546.75" fill="#808080" style="font-size:18px">Dstate'<tspan style="font-size:80%;baseline-shift:sub;">192-255</tspan></text>
<text text-anchor="end" x="956.0" y="566.75" fill="#808080" style="font-size:18px">Dstate'<tspan style="font-size:80%;baseline-shift:sub;">256</tspan></text>
<text text-anchor="middle" x="850.0" y="611.5" fill="#808080" style="font-size:18px">subterranean_duplex</text>
<circle cx="740.0" cy="480.0" r="2.0" stroke="#0000b2" stroke-width="4.0" fill="#0000b2" />
<circle cx="740.0" cy="500.0" r="2.0" stroke="#0000b2" stroke-width="4.0" fill="#0000b2" />
<circle cx="740.0" cy="520.0" r="2.0" stroke="#0000b2" stroke-width="4.0" fill="#0000b2" />
<circle cx="740.0" cy="540.0" r="2.0" stroke="#0000b2" stroke-width="4.0" fill="#0000b2" />
<circle cx="740.0" cy="560.0" r="2.0" stroke="#0000b2" stroke-width="4.0" fill="#0000b2" />
<circle cx="740.0" cy="580.0" r="2.0" stroke="#0000b2" stroke-width="4.0" fill="#0000b2" />
<circle cx="960.0" cy="480.0" r="2.0" stroke="#b20000" stroke-width="4.0" fill="#b20000" />
<circle cx="960.0" cy="500.0" r="2.0" stroke="#b20000" stroke-width="4.0" fill="#b20000" />
<circle cx="960.0" cy="520.0" r="2.0" stroke="#b20000" stroke-width="4.0" fill="#b20000" />
<circle cx="960.0" cy="540.0" r="2.0" stroke="#b20000" stroke-width="4.0" fill="#b20000" />
<circle cx="960.0" cy="560.0" r="2.0" stroke="#b20000" stroke-width="4.0" fill="#b20000" />
</g>
<g>
<path d="M 1121,466 L 1339,466 L 1339,594 L 1121,594 Z" stroke="#ffffb4" stroke-width="0.0" fill="#ffffb4" fill-opacity="0.7843137254901961"/>
<path d="M 1121,466 L 1339,466 L 1339,594 L 1121,594 Z" stroke="#000000" stroke-width="4.0" fill="none"/>
<text text-anchor="start" x="1124.0" y="486.75" fill="#808080" style="font-size:18px">state<tspan style="font-size:80%;baseline-shift:sub;">0-63</tspan></text>
<text text-anchor="start" x="1124.0" y="506.75" fill="#808080" style="font-size:18px">state<tspan style="font-size:80%;baseline-shift:sub;">128-191</tspan></text>
<text text-anchor="start" x="1124.0" y="526.75" fill="#808080" style="font-size:18px">state<tspan style="font-size:80%;baseline-shift:sub;">192-255</tspan></text>
<text text-anchor="start" x="1124.0" y="546.75" fill="#808080" style="font-size:18px">state<tspan style="font-size:80%;baseline-shift:sub;">64-127</tspan></text>
<text text-anchor="start" x="1124.0" y="566.75" fill="#808080" style="font-size:18px">state<tspan style="font-size:80%;baseline-shift:sub;">256</tspan></text>
<text text-anchor="start" x="1124.0" y="586.75" fill="#808080" style="font-size:18px">sigma</text>
<text text-anchor="end" x="1336.0" y="486.75" fill="#808080" style="font-size:18px">Dstate'<tspan style="font-size:80%;baseline-shift:sub;">0-63</tspan></text>
<text text-anchor="end" x="1336.0" y="506.75" fill="#808080" style="font-size:18px">Dstate'<tspan style="font-size:80%;baseline-shift:sub;">64-127</tspan></text>
<text text-anchor="end" x="1336.0" y="526.75" fill="#808080" style="font-size:18px">Dstate'<tspan style="font-size:80%;baseline-shift:sub;">128-191</tspan></text>
<text text-anchor="end" x="1336.0" y="546.75" fill="#808080" style="font-size:18px">Dstate'<tspan style="font-size:80%;baseline-shift:sub;">192-255</tspan></text>
<text text-anchor="end" x="1336.0" y="566.75" fill="#808080" style="font-size:18px">Dstate'<tspan style="font-size:80%;baseline-shift:sub;">256</tspan></text>
<text text-anchor="middle" x="1230.0" y="611.5" fill="#808080" style="font-size:18px">subterranean_duplex</text>
<circle cx="1120.0" cy="480.0" r="2.0" stroke="#0000b2" stroke-width="4.0" fill="#0000b2" />
<circle cx="1120.0" cy="500.0" r="2.0" stroke="#0000b2" stroke-width="4.0" fill="#0000b2" />
<circle cx="1120.0" cy="520.0" r="2.0" stroke="#0000b2" stroke-width="4.0" fill="#0000b2" />
<circle cx="1120.0" cy="540.0" r="2.0" stroke="#0000b2" stroke-width="4.0" fill="#0000b2" />
<circle cx="1120.0" cy="560.0" r="2.0" stroke="#0000b2" stroke-width="4.0" fill="#0000b2" />
<circle cx="1120.0" cy="580.0" r="2.0" stroke="#0000b2" stroke-width="4.0" fill="#0000b2" />
<circle cx="1340.0" cy="480.0" r="2.0" stroke="#b20000" stroke-width="4.0" fill="#b20000" />
<circle cx="1340.0" cy="500.0" r="2.0" stroke="#b20000" stroke-width="4.0" fill="#b20000" />
<circle cx="1340.0" cy="520.0" r="2.0" stroke="#b20000" stroke-width="4.0" fill="#b20000" />
<circle cx="1340.0" cy="540.0" r="2.0" stroke="#b20000" stroke-width="4.0" fill="#b20000" />
<circle cx="1340.0" cy="560.0" r="2.0" stroke="#b20000" stroke-width="4.0" fill="#b20000" />
</g>
<g>
<path d="M 1501,466 L 1719,466 L 1719,594 L 1501,594 Z" stroke="#ffffb4" stroke-width="0.0" fill="#ffffb4" fill-opacity="0.7843137254901961"/>
<path d="M 1501,466 L 1719,466 L 1719,594 L 1501,594 Z" stroke="#000000" stroke-width="4.0" fill="none"/>
<text text-anchor="start" x="1504.0" y="486.75" fill="#808080" style="font-size:18px">state<tspan style="font-size:80%;baseline-shift:sub;">0-63</tspan></text>
<text text-anchor="start" x="1504.0" y="506.75" fill="#808080" style="font-size:18px">state<tspan style="font-size:80%;baseline-shift:sub;">128-191</tspan></text>
<text text-anchor="start" x="1504.0" y="526.75" fill="#808080" style="font-size:18px">state<tspan style="font-size:80%;baseline-shift:sub;">192-255</tspan></text>
<text text-anchor="start" x="1504.0" y="546.75" fill="#808080" style="font-size:18px">state<tspan style="font-size:80%;baseline-shift:sub;">64-127</tspan></text>
<text text-anchor="start" x="1504.0" y="566.75" fill="#808080" style="font-size:18px">state<tspan style="font-size:80%;baseline-shift:sub;">256</tspan></text>
<text text-anchor="start" x="1504.0" y="586.75" fill="#808080" style="font-size:18px">sigma</text>
<text text-anchor="end" x="1716.0" y="486.75" fill="#808080" style="font-size:18px">Dstate'<tspan style="font-size:80%;baseline-shift:sub;">0-63</tspan></text>
<text text-anchor="end" x="1716.0" y="506.75" fill="#808080" style="font-size:18px">Dstate'<tspan style="font-size:80%;baseline-shift:sub;">64-127</tspan></text>
<text text-anchor="end" x="1716.0" y="526.75" fill="#808080" style="font-size:18px">Dstate'<tspan style="font-size:80%;baseline-shift:sub;">128-191</tspan></text>
<text text-anchor="end" x="1716.0" y="546.75" fill="#808080" style="font-size:18px">Dstate'<tspan style="font-size:80%;baseline-shift:sub;">192-255</tspan></text>
<text text-anchor="end" x="1716.0" y="566.75" fill="#808080" style="font-size:18px">Dstate'<tspan style="font-size:80%;baseline-shift:sub;">256</tspan></text>
<text text-anchor="middle" x="1610.0" y="611.5" fill="#808080" style="font-size:18px">subterranean_duplex</text>
<circle cx="1500.0" cy="480.0" r="2.0" stroke="#0000b2" stroke-width="4.0" fill="#0000b2" />
<circle cx="1500.0" cy="500.0" r="2.0" stroke="#0000b2" stroke-width="4.0" fill="#0000b2" />
<circle cx="1500.0" cy="520.0" r="2.0" stroke="#0000b2" stroke-width="4.0" fill="#0000b2" />
<circle cx="1500.0" cy="540.0" r="2.0" stroke="#0000b2" stroke-width="4.0" fill="#0000b2" />
<circle cx="1500.0" cy="560.0" r="2.0" stroke="#0000b2" stroke-width="4.0" fill="#0000b2" />
<circle cx="1500.0" cy="580.0" r="2.0" stroke="#0000b2" stroke-width="4.0" fill="#0000b2" />
<circle cx="1720.0" cy="480.0" r="2.0" stroke="#b20000" stroke-width="4.0" fill="#b20000" />
<circle cx="1720.0" cy="500.0" r="2.0" stroke="#b20000" stroke-width="4.0" fill="#b20000" />
<circle cx="1720.0" cy="520.0" r="2.0" stroke="#b20000" stroke-width="4.0" fill="#b20000" />
<circle cx="1720.0" cy="540.0" r="2.0" stroke="#b20000" stroke-width="4.0" fill="#b20000" />
<circle cx="1720.0" cy="560.0" r="2.0" stroke="#b20000" stroke-width="4.0" fill="#b20000" />
</g>
<g>
<text text-anchor="end" x="1818.0" y="492.0" fill="#808080" style="font-size:12px">0-63</text>
<text text-anchor="start" x="1842.0" y="492.0" fill="#808080" style="font-size:12px">0</text>
<text text-anchor="start" x="1842.0" y="472.0" fill="#808080" style="font-size:12px">1</text>
<text text-anchor="start" x="1842.0" y="452.0" fill="#808080" style="font-size:12px">2-63</text>
<path d="M 1828,482 L 1832,482 L 1832,438 L 1828,438 Z" stroke="#000000" stroke-width="4.0" fill="#000000" fill-opacity="1.0"/>
<circle cx="1820.0" cy="480.0" r="2.0" stroke="#0000b2" stroke-width="4.0" fill="#0000b2" />
<circle cx="1840.0" cy="480.0" r="2.0" stroke="#b20000" stroke-width="4.0" fill="#b20000" />
<circle cx="1840.0" cy="460.0" r="2.0" stroke="#b20000" stroke-width="4.0" fill="#b20000" />
<circle cx="1840.0" cy="440.0" r="2.0" stroke="#b20000" stroke-width="4.0" fill="#b20000" />
</g>
<g>
<path d="M 1950,470 L 1930,470 C 1940,454 1940,426 1930,410 L 1950,410 C 1970,410 1990,420 2000,440 C 1990,460 1970,470 1950,470 Z" stroke="#000000" stroke-width="4.0" fill="none"/>
<path d="M 1920,470 C 1930,460 1930,420 1920,410" stroke="#000000" stroke-width="4.0" fill="none"/>
<circle cx="1920.0" cy="420.0" r="2.0" stroke="#0000b2" stroke-width="4.0" fill="#0000b2" />
<circle cx="1920.0" cy="460.0" r="2.0" stroke="#0000b2" stroke-width="4.0" fill="#0000b2" />
<circle cx="2000.0" cy="440.0" r="2.0" stroke="#b20000" stroke-width="4.0" fill="#b20000" />
</g>
<g>
<text text-anchor="end" x="1897.0" y="429.0" fill="#000000" style="font-size:24px">1</text>
<circle cx="1900.0" cy="420.0" r="2.0" stroke="#b20000" stroke-width="4.0" fill="#b20000" />
</g>
<g>
<text text-anchor="end" x="2038.0" y="492.0" fill="#808080" style="font-size:12px">0</text>
<text text-anchor="end" x="2038.0" y="452.0" fill="#808080" style="font-size:12px">1</text>
<text text-anchor="end" x="2038.0" y="412.0" fill="#808080" style="font-size:12px">2-63</text>
<text text-anchor="start" x="2062.0" y="492.0" fill="#808080" style="font-size:12px">0-63</text>
<path d="M 2048,482 L 2052,482 L 2052,398 L 2048,398 Z" stroke="#000000" stroke-width="4.0" fill="#000000" fill-opacity="1.0"/>
<circle cx="2040.0" cy="480.0" r="2.0" stroke="#0000b2" stroke-width="4.0" fill="#0000b2" />
<circle cx="2040.0" cy="440.0" r="2.0" stroke="#0000b2" stroke-width="4.0" fill="#0000b2" />
<circle cx="2040.0" cy="400.0" r="2.0" stroke="#0000b2" stroke-width="4.0" fill="#0000b2" />
<circle cx="2060.0" cy="480.0" r="2.0" stroke="#b20000" stroke-width="4.0" fill="#b20000" />
</g>
<g>
<text text-anchor="start" x="1840.0" y="372.75" fill="#000000" style="font-size:17px">This is an inlined duplex<tspan style="font-size:80%;baseline-shift:sub;">0bit</tspan></text>
</g>
</g>
</svg>